<svg xmlns="http://www.w3.org/2000/svg"
shape-rendering="geometricPrecision"
width="4000" height="4000" viewBox="0 0 1024 1024">
  <metadata>null</metadata>

<path d="
M 45.997 641.584
C 46.152 640.932 46.01 641.241 46.449 640.671
C 55.929 640.224 65.51 640.727 75.002 640.681
C 77.913 640.667 80.823 640.693 83.733 640.693
C 84.75 640.693 86.424 640.129 87.346 640.458
C 87.137 649.646 87.384 659.323 93.906 666.452
C 102.905 676.289 120.287 678.018 128.755 666.511
C 130.271 664.451 131.591 662.151 132.403 659.718
C 134.266 654.139 134.269 648.073 134.26 642.26
C 134.251 636.675 134.342 631.089 134.264 625.504
C 133.988 605.826 134.061 586.182 134.147 566.495
C 134.176 559.995 134.128 553.492 134.239 546.992
C 134.28 544.632 133.564 541.152 134.359 538.943
C 141.477 537.859 149.309 538.683 156.506 538.729
C 162.859 538.769 169.725 538.015 176.013 538.879
C 176.449 539.924 176.181 541.583 176.174 542.71
C 176.157 545.641 176.169 548.572 176.181 551.502
C 176.226 561.672 176.22 571.846 176.317 582.015
C 176.485 599.536 176.372 616.99 176.146 634.499
C 176.024 643.993 176.996 653.868 175.564 663.284
C 173.074 679.651 163.551 693.517 150.076 702.899
C 124.828 720.476 86.742 716.105 65.267 694.363
C 51.561 680.486 44.267 661.112 45.997 641.584 Z
M 47.917 642.931
C 47.016 650.161 48.163 657.226 50.006 664.182
C 56.005 686.825 74.645 703.941 97.142 709.512
C 104.759 711.398 112.676 711.504 120.418 710.833
C 127.725 710.201 135.186 708.573 141.817 705.357
C 146.106 703.277 150.044 700.518 153.73 697.512
C 163.151 689.829 169.784 678.954 172.404 667.086
C 175.141 654.689 174.351 641.401 174.496 628.787
C 174.55 624.124 175.557 619.393 175.673 614.657
C 175.767 610.774 175.842 606.759 175.681 602.881
C 175.576 600.34 175.124 597.824 175.27 595.249
C 175.344 593.934 176.097 592.827 176.071 591.454
C 176.047 590.222 175.226 589.937 175.031 588.922
C 174.551 586.435 174.708 583.53 174.563 580.993
C 174.008 571.264 174.189 561.529 174.052 551.791
C 174.015 549.151 173.875 546.527 173.891 543.883
C 173.896 542.945 174.145 541.426 173.64 540.655
C 169.98 540.843 166.28 540.418 162.616 540.372
C 157.438 540.308 152.285 540.555 147.126 540.574
C 144.69 540.583 142.257 540.538 139.822 540.599
C 138.758 540.625 137.277 540.465 136.346 540.941
C 135.577 554.136 135.787 567.498 135.64 580.716
C 135.566 587.452 134.955 594.176 134.798 600.918
C 134.661 606.767 135.076 612.689 135.114 618.548
C 135.126 620.414 135.948 622.03 136.044 623.884
C 136.366 630.072 135.91 636.252 135.734 642.413
C 135.566 648.327 135.943 653.844 134.437 659.643
C 133.718 662.414 132.498 665.026 130.879 667.386
C 121.022 681.746 98.264 678.437 89.635 664.548
C 86.857 660.075 85.681 655.136 85.481 649.905
C 85.424 648.425 85.445 646.522 85.567 645.096
C 85.635 644.303 85.968 643.562 85.6 642.788
C 83.029 642.142 79.658 642.634 76.99 642.612
C 70.818 642.561 64.648 642.591 58.477 642.679
C 55.963 642.715 53.43 642.583 50.919 642.705
C 49.985 642.751 48.762 642.591 47.917 642.931 Z"
opacity="0.996" fill="rgb(228,230,229)" fill-rule="evenodd" />
<path d="
M 47.917 642.931
C 48.762 642.591 49.985 642.751 50.919 642.705
C 53.43 642.583 55.963 642.715 58.477 642.679
C 64.648 642.591 70.818 642.561 76.99 642.612
C 79.658 642.634 83.029 642.142 85.6 642.788
C 85.968 643.562 85.635 644.303 85.567 645.096
C 85.445 646.522 85.424 648.425 85.481 649.905
C 85.681 655.136 86.857 660.075 89.635 664.548
C 98.264 678.437 121.022 681.746 130.879 667.386
C 132.498 665.026 133.718 662.414 134.437 659.643
C 135.943 653.844 135.566 648.327 135.734 642.413
C 135.91 636.252 136.366 630.072 136.044 623.884
C 135.948 622.03 135.126 620.414 135.114 618.548
C 135.076 612.689 134.661 606.767 134.798 600.918
C 134.955 594.176 135.566 587.452 135.64 580.716
C 135.787 567.498 135.577 554.136 136.346 540.941
C 137.277 540.465 138.758 540.625 139.822 540.599
C 142.257 540.538 144.69 540.583 147.126 540.574
C 152.285 540.555 157.438 540.308 162.616 540.372
C 166.28 540.418 169.98 540.843 173.64 540.655
C 174.145 541.426 173.896 542.945 173.891 543.883
C 173.875 546.527 174.015 549.151 174.052 551.791
C 174.189 561.529 174.008 571.264 174.563 580.993
C 174.708 583.53 174.551 586.435 175.031 588.922
C 175.226 589.937 176.047 590.222 176.071 591.454
C 176.097 592.827 175.344 593.934 175.27 595.249
C 175.124 597.824 175.576 600.34 175.681 602.881
C 175.842 606.759 175.767 610.774 175.673 614.657
C 175.557 619.393 174.55 624.124 174.496 628.787
C 174.351 641.401 175.141 654.689 172.404 667.086
C 169.784 678.954 163.151 689.829 153.73 697.512
C 150.044 700.518 146.106 703.277 141.817 705.357
C 135.186 708.573 127.725 710.201 120.418 710.833
C 112.676 711.504 104.759 711.398 97.142 709.512
C 74.645 703.941 56.005 686.825 50.006 664.182
C 48.163 657.226 47.016 650.161 47.917 642.931 Z"
opacity="1" fill="rgb(188,188,190)" fill-rule="evenodd" />
<path d="
M 231.134 603.927
C 231.42 609.206 231.719 614.717 231.419 619.997
C 231.313 621.857 230.391 623.526 230.301 625.468
C 230.234 626.913 229.929 628.766 230.323 630.173
C 230.653 631.353 231.155 632.24 231.066 633.522
C 230.986 634.668 229.998 634.876 229.886 635.982
C 229.362 641.157 229.745 646.518 229.542 651.722
C 229.35 656.645 229.176 661.556 229.104 666.483
C 229.071 668.773 228.732 671.438 229.396 673.65
C 230.856 674.138 232.753 673.84 234.278 673.838
C 237.692 673.832 241.105 673.704 244.52 673.684
C 249.358 673.656 254.317 674.018 259.136 673.519
C 270.813 672.31 282.267 667.144 290.034 658.139
C 295.239 652.103 298.562 644.749 300.563 637.099
C 301.145 634.874 301.329 632.617 301.813 630.371
C 302.018 629.415 302.472 628.014 302.101 627.053
C 301.73 626.092 300.016 626.638 300.068 627.47
C 300.186 621.581 299.533 615.369 297.612 609.785
C 296.076 605.318 293.897 601.219 291.05 597.453
C 284.928 589.356 276.68 583.358 266.829 580.683
C 260.433 578.946 253.567 579.366 247.004 579.308
C 234.985 579.202 223.399 579.565 211.574 577.156
C 211.414 575.368 208.184 574.573 206.887 573.989
C 202.842 572.167 197.611 570.404 194.809 566.747
C 192.918 564.279 193.34 560.941 193.358 558.01
C 193.394 552.208 193.381 546.46 193.702 540.677
C 208.405 539.986 223.271 540.282 238.002 540.296
C 249.253 540.307 260.728 539.625 271.714 542.365
C 280.719 544.611 289.233 548.224 297.46 552.489
C 300.352 553.987 303.691 555.634 306.27 557.598
C 306.761 557.972 308.394 560.266 309.069 558.92
C 329.285 574.963 338.521 599.063 341.316 624.027
C 340.439 624.605 341.17 625.658 340.79 626.419
C 338.952 630.102 339.696 634.741 338.879 638.759
C 336.546 650.236 333.142 660.871 326.216 670.498
C 311.496 690.96 290.02 704.238 264.936 707.52
C 252.864 709.099 240.158 708.092 228 708.072
C 219.997 708.059 211.994 707.902 203.99 707.874
C 201.659 707.866 199.328 707.879 196.997 707.816
C 195.967 707.789 194.65 708.075 193.714 707.622
C 193.672 695.494 193.282 683.324 193.286 671.216
C 193.29 657.092 193.49 642.956 193.176 628.834
C 193.131 626.809 192.506 624.883 192.34 622.874
C 192 618.773 192.063 614.604 191.951 610.488
C 191.776 603.01 191.983 595.529 191.949 588.05
C 191.928 587.471 191.886 587.017 191.628 586.494
C 191.587 584.118 191.389 581.744 191.519 579.367
C 192.135 578.892 193.778 579.527 194.56 579.689
C 197.439 580.287 200.315 580.848 203.161 581.586
C 210.613 583.516 218.039 586.895 224.173 591.597
C 226.498 593.379 229.18 595.585 230.482 598.285
C 231.218 599.811 231.094 602.238 231.134 603.927 Z"
opacity="1" fill="rgb(193,193,194)" fill-rule="evenodd" />
<path d="
M 191.628 586.494
C 191.886 587.017 191.928 587.471 191.949 588.05
C 191.983 595.529 191.776 603.01 191.951 610.488
C 192.063 614.604 192 618.773 192.34 622.874
C 192.506 624.883 193.131 626.809 193.176 628.834
C 193.49 642.956 193.29 657.092 193.286 671.216
C 193.282 683.324 193.672 695.494 193.714 707.622
C 194.65 708.075 195.967 707.789 196.997 707.816
C 199.328 707.879 201.659 707.866 203.99 707.874
C 211.994 707.902 219.997 708.059 228 708.072
C 240.158 708.092 252.864 709.099 264.936 707.52
C 290.02 704.238 311.496 690.96 326.216 670.498
C 333.142 660.871 336.546 650.236 338.879 638.759
C 339.696 634.741 338.952 630.102 340.79 626.419
C 341.17 625.658 340.439 624.605 341.316 624.027
C 345.19 664.635 310.215 701.56 271.676 708.846
C 262.832 710.518 253.945 710.204 244.989 710.226
C 233.492 710.254 221.994 710.311 210.496 710.322
C 204.16 710.328 197.761 710.014 191.436 710.434
C 190.591 705.889 191.362 700.62 191.319 695.995
C 191.217 685.16 191.374 674.33 191.392 663.496
C 191.418 648.148 191.095 632.765 191.361 617.444
C 191.384 616.103 191.891 615.004 191.899 613.642
C 191.929 608.088 191.944 602.461 191.799 596.908
C 191.776 596.001 191.353 595.398 191.306 594.53
C 191.158 591.829 191.37 589.178 191.628 586.494 Z"
opacity="1" fill="rgb(230,235,232)" fill-rule="evenodd" />
<path d="
M 309.069 558.92
C 308.394 560.266 306.761 557.972 306.27 557.598
C 303.691 555.634 300.352 553.987 297.46 552.489
C 289.233 548.224 280.719 544.611 271.714 542.365
C 260.728 539.625 249.253 540.307 238.002 540.296
C 223.271 540.282 208.405 539.986 193.702 540.677
C 193.381 546.46 193.394 552.208 193.358 558.01
C 193.34 560.941 192.918 564.279 194.809 566.747
C 197.611 570.404 202.842 572.167 206.887 573.989
C 208.184 574.573 211.414 575.368 211.574 577.156
C 206.809 575.996 202.269 573.862 198.159 571.214
C 196.086 569.878 193.699 568.141 192.496 565.922
C 191.33 563.772 191.861 560.363 191.813 557.997
C 191.722 553.497 191.695 548.994 191.773 544.494
C 191.804 542.672 191.517 540.686 191.817 538.892
C 195.769 538.35 200.013 538.734 204.007 538.724
C 211.838 538.705 219.669 538.678 227.5 538.684
C 234.467 538.689 241.437 538.756 248.403 538.713
C 254.441 538.676 260.524 538.538 266.51 539.443
C 280.508 541.562 294.485 547.747 305.741 556.246
C 306.876 557.088 308.065 557.921 309.069 558.92 Z"
opacity="1" fill="rgb(219,218,214)" fill-rule="evenodd" />
<path d="
M 231.134 603.927
C 231.44 604.494 231.515 604.89 231.532 605.54
C 231.534 607.359 231.494 609.177 231.496 610.996
C 231.497 611.163 231.497 611.33 231.498 611.497
C 231.552 625.498 231.257 639.495 231.334 653.506
C 231.356 657.501 231.408 661.497 231.38 665.492
C 231.367 667.391 230.994 669.659 231.431 671.502
C 235.804 672.131 240.403 671.41 244.807 671.393
C 252.857 671.362 261.024 672.039 268.79 669.411
C 286.894 663.284 299.347 646.565 300.068 627.47
C 300.016 626.638 301.73 626.092 302.101 627.053
C 302.472 628.014 302.018 629.415 301.813 630.371
C 301.329 632.617 301.145 634.874 300.563 637.099
C 298.562 644.749 295.239 652.103 290.034 658.139
C 282.267 667.144 270.813 672.31 259.136 673.519
C 254.317 674.018 249.358 673.656 244.52 673.684
C 241.105 673.704 237.692 673.832 234.278 673.838
C 232.753 673.84 230.856 674.138 229.396 673.65
C 228.732 671.438 229.071 668.773 229.104 666.483
C 229.176 661.556 229.35 656.645 229.542 651.722
C 229.745 646.518 229.362 641.157 229.886 635.982
C 229.998 634.876 230.986 634.668 231.066 633.522
C 231.155 632.24 230.653 631.353 230.323 630.173
C 229.929 628.766 230.234 626.913 230.301 625.468
C 230.391 623.526 231.313 621.857 231.419 619.997
C 231.719 614.717 231.42 609.206 231.134 603.927 Z"
opacity="1" fill="rgb(210,213,217)" fill-rule="evenodd" />
<path d="
M 548.531 399.198
C 549.103 399.5 549.449 400.062 550.088 400.265
C 551.685 400.769 553.329 399.859 554.929 400.103
C 560.822 401.002 566.562 400.981 572.535 400.921
C 574.296 400.903 576.088 401.092 577.836 401.273
C 578.284 401.319 578.91 401.783 579.347 401.64
C 579.749 401.508 579.97 401.142 580.109 400.779
C 581.204 401.135 582.104 401.79 583.094 402.353
C 583.271 402.761 582.921 403.225 583.193 403.587
C 583.632 404.172 584.671 404.246 585.221 404.75
C 586.497 405.922 587.342 407.843 589.051 408.469
C 590.86 410.123 591.742 413.357 592.341 415.661
C 593.689 420.844 594.546 426.158 595.777 431.371
C 598.829 444.295 602.214 457.163 605.084 470.127
C 606.573 476.852 607.817 483.642 609.424 490.338
C 610.896 496.477 612.608 502.831 613.518 509.073
C 613.853 511.363 612.944 514.431 610.432 515.13
C 608.525 515.661 605.59 516.322 603.83 515.139
C 601.596 513.638 601.244 510.817 600.82 508.365
C 600.038 503.845 598.832 499.347 597.746 494.889
C 593.286 476.57 589.038 458.166 585.176 439.713
C 583.944 433.825 582.387 427.98 581.292 422.068
C 581.519 421.537 581.858 418.682 580.813 420.053
C 580.309 417.297 579.481 414.227 577.011 412.605
C 574.764 411.129 571.623 411.446 569.045 411.424
C 563.15 411.375 556.985 411.072 551.126 411.681
C 550.969 414.715 550.644 417.803 550.787 420.84
C 550.817 421.487 550.636 423.752 551.482 423.708
C 550.967 423.674 549.237 424.265 550.548 424.769
C 552.871 425.663 556.277 424.764 558.756 425.14
C 561.568 425.567 564.552 426.725 566.672 428.675
C 568.176 430.058 569.251 431.851 570.965 433.013
C 572.12 434.335 572.668 436.805 572.943 438.506
C 573.752 443.496 573.253 448.955 573.231 454.005
C 573.168 468.484 573.058 482.972 573.138 497.451
C 573.184 505.657 573.84 513.641 566.919 519.438
C 559.428 525.714 549.626 523.88 540.502 523.883
C 520.669 523.889 500.835 523.86 481.001 523.916
C 471.672 523.942 462.154 525.532 455.097 518.04
C 450.302 512.948 450.685 507.011 450.712 500.502
C 450.745 492.669 450.727 484.836 450.758 477.003
C 450.794 468.001 450.859 459 450.812 449.997
C 450.793 446.28 450.373 442.258 450.983 438.58
C 451.919 432.938 455.691 428.092 460.83 425.642
C 461.839 427.61 462.978 425.539 464.31 425.816
C 464.605 425.878 464.775 426.328 465.114 426.208
C 465.724 425.992 466.098 425.412 466.79 425.304
C 467.295 425.226 468.188 425.716 468.598 425.235
C 469.003 424.759 468.541 423.913 467.981 423.774
C 469.222 423.715 472.014 424.221 473.033 423.556
C 472.472 419.96 472.725 415.493 472.955 411.86
C 472.446 411.416 471.577 411.584 470.917 411.563
C 469.114 411.504 467.304 411.545 465.501 411.555
C 461.169 411.579 456.839 411.559 452.506 411.547
C 449.023 411.538 445.492 411.852 443.582 415.216
C 442.279 417.51 442.125 420.346 441.585 422.879
C 440.513 427.899 439.497 432.93 438.374 437.938
C 434.402 455.652 430.563 473.386 426.455 491.07
C 425.375 495.716 424.098 500.353 423.18 505.033
C 422.734 507.304 422.642 510.641 421.518 512.665
C 419.909 515.563 415.403 516.585 412.592 514.875
C 410.773 513.767 409.398 511.695 409.374 509.524
C 409.349 507.339 410.45 504.73 410.962 502.6
C 412.109 497.828 413.192 493.038 414.316 488.263
C 418.715 469.575 422.914 450.772 426.882 431.987
C 428.836 422.737 429.612 411.436 436.93 404.648
C 444.938 397.219 457.467 399.22 467.501 399.293
C 469.918 399.311 472.467 399.594 474.856 399.167
C 475.196 397.445 471.213 395.259 469.981 394.322
C 464.669 390.28 460.205 385.067 455.647 380.221
C 450.544 379.602 445.145 380.082 440.011 380.095
C 431.01 380.12 422.009 380.053 413.008 380.042
C 401.837 380.029 390.674 379.914 379.503 379.888
C 373.822 379.874 367.958 379.498 362.297 379.963
C 362.009 371.418 362.831 362.743 362.119 354.219
C 361.772 353.68 358.813 353.881 358.199 353.847
C 354.357 353.633 350.504 353.326 346.691 352.806
C 334.762 351.179 322.551 350.014 311.406 345.077
C 307.361 343.286 302.024 341.263 300.259 336.832
C 297.586 330.121 301.124 324.547 307.03 321.439
C 315.604 316.926 324.843 314.899 334.311 313.274
C 337.643 312.702 341.562 311.596 344.948 311.912
C 344.937 315.038 344.933 318.222 345.164 321.341
C 342.186 322.578 337.849 322.595 334.64 323.084
C 328.658 323.997 322.711 325.48 317.121 327.812
C 314.238 329.015 310.967 329.985 308.98 332.525
C 309.584 333.814 311.099 334.335 312.345 334.897
C 315.621 336.377 319.083 337.505 322.512 338.567
C 333.009 341.818 344.55 343.107 355.471 343.843
C 359.663 344.125 364.098 344.926 368.285 344.748
C 365.482 334.363 379.91 327.473 385.612 337.028
C 386.955 339.28 387.1 342.027 386.935 344.591
C 396.795 343.691 406.699 343.278 416.497 341.753
C 426.746 340.158 436.773 337.292 446.313 333.305
C 446.472 330.976 443.484 330.261 441.805 329.455
C 436.465 326.891 430.497 325.351 424.718 324.171
C 400.459 319.22 375.83 319.206 351.202 320.718
C 351.318 317.589 350.963 314.358 350.754 311.235
C 357.518 310.933 364.21 309.966 371.003 309.836
C 388.759 309.495 406.132 310.845 423.612 313.862
C 430.922 315.125 438.525 316.731 445.286 319.854
C 448.083 321.146 451.089 322.641 453.269 324.871
C 456.445 328.12 457.235 334.939 454.192 338.545
C 451.825 341.35 448.253 342.851 445.013 344.378
C 437.962 347.701 430.177 349.338 422.561 350.796
C 412.472 352.727 402.339 353.995 392.07 354.082
C 392.222 358.79 392.245 363.53 392.172 368.241
C 404.436 368.476 416.733 368.32 429.002 368.324
C 436.805 368.327 444.67 368.622 452.465 368.356
C 453.429 367.701 453.928 365.829 455.004 364.97
C 461.247 359.988 467.638 355.187 474.131 350.528
C 477.396 348.185 481.154 344.637 484.977 343.302
C 487.472 342.431 490.935 342.915 493.53 343.074
C 497.501 343.318 501.526 343.118 505.503 343.12
C 512.503 343.123 519.504 343.1 526.504 343.098
C 529.747 343.097 533.867 342.453 536.97 343.533
C 540.793 344.863 544.473 348.383 547.729 350.728
C 554.027 355.265 560.28 359.935 566.297 364.843
C 567.525 365.845 568.532 367.131 569.76 368.101
C 571.68 368.587 574.023 368.31 576.002 368.325
C 580.003 368.356 584.003 368.372 588.004 368.376
C 602.231 368.392 616.661 367.686 630.865 368.39
C 630.955 365.097 630.844 361.797 630.864 358.5
C 630.871 357.245 631.258 355.344 630.778 354.194
C 624.971 354.34 618.973 353.334 613.221 352.62
C 601.434 351.157 589.452 349.366 578.393 344.862
C 571.984 342.252 566.011 338.522 566.967 330.704
C 567.136 329.328 567.542 328.039 568.258 326.848
C 570.908 322.442 576.365 320.322 580.946 318.595
C 588.372 315.795 595.913 314.277 603.748 313.12
C 607.162 312.616 610.934 312.722 614.247 311.761
C 614.054 313.918 614.089 316.146 614.132 318.313
C 614.151 319.25 614.382 320.507 614.057 321.396
C 611.36 322.033 608.504 322.204 605.765 322.639
C 599.048 323.706 592.12 325.1 585.749 327.523
C 582.642 328.704 578.965 329.772 576.52 332.102
C 576.082 333.26 578.195 334.159 579.107 334.628
C 582.452 336.349 586.294 337.191 589.862 338.316
C 604.975 343.081 621.232 343.562 636.893 344.868
C 637.231 340.221 637.304 336.813 641.324 333.669
C 646.142 329.9 652.563 333.09 654.935 338.121
C 655.883 340.133 655.914 342.243 655.744 344.431
C 656.615 344.926 658.441 344.393 659.428 344.351
C 662.957 344.201 666.644 344.002 670.132 343.465
C 680.894 341.81 691.568 341.183 702.088 337.972
C 705.989 336.781 710.875 335.887 714.185 333.389
C 714.701 330.834 711.527 330.027 709.695 329.235
C 704.359 326.927 698.763 325.281 693.067 324.129
C 669.127 319.29 644.772 319.575 620.461 320.413
C 620.013 319.91 620.152 318.766 620.103 318.075
C 619.943 315.856 619.411 313.177 620.039 311.011
C 647.578 308.516 676.334 309.178 703.19 316.303
C 711.998 318.639 725.041 321.994 724.153 333.335
C 724.019 335.047 723.544 336.724 722.561 338.149
C 720.013 341.846 715.032 343.79 711.036 345.411
C 700.552 349.663 689.059 351.373 677.902 352.895
C 673.669 353.473 669.39 353.614 665.136 353.934
C 664.379 353.991 661.244 353.844 660.965 354.395
C 661.468 360.783 661.256 367.212 661.512 373.615
C 661.592 375.624 661.342 377.826 661.67 379.797
C 658.944 380.282 655.771 379.898 653.002 379.897
C 647.226 379.896 641.45 379.902 635.673 379.932
C 620.787 380.011 605.899 380.103 591.012 380.107
C 583.177 380.109 575.194 379.653 567.377 380.139
C 565.57 381.013 564.111 383.39 562.733 384.837
C 560.238 387.458 557.477 390.001 554.703 392.324
C 552.827 393.895 550.782 395.286 548.937 396.88
C 548.142 397.567 546.808 398.869 548.531 399.198 Z
M 461.987 488.121
C 461.779 493.126 461.865 498.18 461.883 503.19
C 461.893 506.017 461.777 508.758 463.781 510.999
C 466.048 513.534 468.901 513.199 472.002 513.14
C 474.836 513.085 477.671 513.113 480.505 513.119
C 495.67 513.153 510.838 513.239 526.003 513.168
C 534.204 513.13 542.384 512.887 550.587 512.943
C 554.766 512.972 558.654 513.47 561.114 509.349
C 562.239 507.464 561.826 505.105 561.763 503.01
C 561.649 499.178 561.698 495.335 561.7 491.501
C 561.706 479.333 561.601 467.165 561.574 454.997
C 561.566 451.142 561.765 447.213 561.488 443.369
C 561.371 441.743 561.621 440.009 561.021 438.456
C 559.507 434.539 554.61 434.814 551.21 435.232
C 551.295 440.091 551.859 445.954 550.668 450.687
C 549.803 451.216 548.001 450.927 547.002 450.959
C 545.591 451.004 543.018 451.59 541.813 450.695
C 540.403 449.647 540.384 447.942 540.339 446.355
C 540.238 442.811 540.059 439.12 540.286 435.587
C 538.601 434.971 536.282 435.4 534.503 435.391
C 530.503 435.371 526.503 435.379 522.503 435.391
C 508.67 435.431 494.841 435.54 481.005 435.56
C 477.671 435.565 474.338 435.657 471.004 435.676
C 467.698 435.696 464.477 435.476 462.69 438.894
C 461.955 440.3 462.138 442.185 462.166 443.721
C 462.222 446.816 462.261 449.909 462.273 453.004
C 462.301 460.505 462.221 468.006 462.168 475.506
C 462.138 479.656 462.434 483.995 461.987 488.121 Z
M 485.484 423.923
C 486.427 424.948 487.666 424.497 488.976 424.488
C 492.15 424.466 495.323 424.483 498.497 424.479
C 503.84 424.474 509.149 424.819 514.483 424.919
C 516.876 424.964 519.276 424.656 521.665 424.776
C 524.382 424.912 527.022 425.337 529.761 425.35
C 532.268 425.361 534.787 425.164 537.292 425.252
C 538.37 425.289 540.192 425.683 541.174 425.177
C 541.237 424.653 540.63 424.309 540.29 423.984
C 539.452 420.097 540.066 415.367 539.945 411.371
C 538.424 410.836 536.126 411.24 534.508 411.236
C 530.507 411.226 526.507 411.194 522.506 411.189
C 509.712 411.173 496.604 410.339 483.857 411.312
C 483.599 414.195 483.693 417.11 483.712 420.002
C 483.72 421.237 483.516 422.809 483.921 423.977
C 484.446 423.884 484.954 423.889 485.484 423.923 Z"
opacity="1" fill="rgb(207,207,208)" fill-rule="evenodd" />
<path d="
M 461.618 637.524
C 460.788 637.486 459.846 637.964 459.808 638.871
C 459.778 639.576 460.166 640.254 460.247 640.953
C 460.511 643.216 460.483 645.243 461.286 647.34
C 461.746 648.542 461.672 650.083 463.02 650.723
C 462.655 653.467 468.14 653.414 469.64 654.628
C 469.606 656.781 469.431 658.983 469.21 661.135
C 469.124 661.972 469.136 662.852 468.589 663.529
C 467.432 664.017 466.094 664.408 464.998 664.966
C 463.682 664.881 461.592 664.337 460.391 664.832
C 460.164 664.327 459.763 663.843 459.293 663.557
C 458.052 665.278 457.908 667.828 457.179 669.799
C 456.292 672.199 453.318 674.725 453.213 677.316
C 453.188 677.916 453.535 678.112 453.762 678.582
C 453.919 678.907 453.5 679.489 453.558 679.874
C 453.788 681.404 455.722 682.958 456.379 684.405
C 456.838 685.417 456.645 686.562 457.384 687.457
C 457.962 688.158 458.794 687.839 459.358 687.39
C 458.145 689.492 455.916 691.489 454.272 693.299
C 453.861 693.752 453.148 694.871 452.45 694.509
C 453.072 694.244 454.91 692.118 454.198 691.382
C 453.907 691.082 452.082 691.89 451.619 691.856
C 449.774 690.544 447.829 687.344 445.456 687.084
C 443.826 686.905 442.27 688.248 441.102 689.217
C 438.82 691.11 436.338 692.747 433.731 694.156
C 432.471 694.837 430.886 694.901 429.974 696.097
C 429.784 699.122 431.947 701.941 431.843 704.85
C 430.948 706.278 427.48 706.942 425.932 707.295
C 425.363 707.425 424.807 707.79 424.257 707.555
C 421.684 705.768 421.589 701.362 419.418 699.108
C 418.548 698.204 416.348 698.573 415.211 698.631
C 411.074 698.841 406.313 697.962 402.288 698.725
C 401.381 700.546 400.598 702.553 399.782 704.429
C 399.412 705.28 399.228 706.322 398.43 706.889
C 396.066 707.185 393.218 706.044 391.006 705.373
C 390.438 704.567 390.976 703.38 391.077 702.454
C 391.288 700.51 391.813 698.184 391.525 696.259
C 390.772 695.354 389.508 695.083 388.494 694.557
C 386.068 693.3 383.809 691.865 381.497 690.416
C 380.219 689.615 378.965 688.667 377.374 689.004
C 376.518 688.303 375.56 689.117 374.794 689.631
C 373.381 690.582 370.452 694.189 368.68 693.81
C 367.095 692.804 366.467 691.071 365.287 689.701
C 364.074 688.294 362.377 687.595 361.626 685.799
C 362.069 683.567 363.967 681.679 365.562 680.153
C 366.468 679.909 367.56 681.072 368.211 679.801
C 368.836 678.581 367.032 676.63 366.447 675.676
C 366.094 675.1 366.162 674.4 365.866 673.787
C 364.448 670.851 363.176 667.741 361.487 664.943
C 359.537 662.863 356.457 663.96 354.019 663.44
C 353.344 663.296 353.269 662.56 352.488 662.47
C 351.695 662.596 350.972 663.34 350.718 664.087
C 349.962 663.258 349.881 661.48 349.822 660.398
C 349.694 658.035 349.48 655.605 349.154 653.264
C 351.959 652.823 355.204 652.289 357.799 651.101
C 358.848 648.658 358.127 645.207 358.463 642.584
C 358.651 641.123 359.328 639.179 359.012 637.754
C 357.913 634.936 353.615 634.033 351.625 632.043
C 352.116 628.189 353.853 624.392 355.183 620.762
C 355.74 620.138 357.162 620.682 357.934 620.841
C 360.342 621.336 362.527 622.847 364.932 623.218
C 365.829 622.788 366.699 621.315 367.404 620.579
C 369.304 618.594 371.056 616.52 372.852 614.446
C 373.557 613.632 374.669 612.771 375.097 611.786
C 375.174 610.912 374.512 609.882 374.192 609.083
C 373.351 606.986 372.38 604.948 371.549 602.846
C 373.926 600.942 376.815 599.596 379.416 598.012
C 380.342 597.449 381.962 596.188 383.021 596.257
C 384.492 598.069 385.975 599.919 387.508 601.679
C 388.047 602.298 388.718 603.324 389.473 603.63
C 391.839 602.667 394.012 601.486 396.477 600.718
C 398.592 600.058 400.941 599.878 402.998 599.111
C 404.648 596.766 403.308 592.526 404.407 589.838
C 408.11 588.797 413.114 589.29 416.909 589.655
C 417.857 592.592 417.072 596.451 418.674 599.107
C 422.064 600.21 425.652 600.746 429.076 601.771
C 430.023 602.055 431.802 603.097 432.723 602.652
C 434.287 601.069 435.424 599.223 436.775 597.474
C 437.42 596.639 437.986 595.558 438.991 595.14
C 442.711 597.007 446.436 598.9 450.028 601.018
C 450.088 604.612 446.727 607.739 445.775 611.023
C 448.062 613.821 450.373 616.615 452.6 619.462
C 453.494 620.605 454.509 622.423 455.789 623.13
C 456.571 623.307 457.545 622.768 458.287 622.522
C 459.98 621.962 461.656 621.524 463.395 621.131
C 463.965 621.002 464.856 620.538 465.396 620.696
C 466.878 623.947 468.386 627.932 469.321 631.383
C 468.517 632.995 464.944 634.178 463.447 635.21
C 462.48 635.876 461.544 636.268 461.618 637.524 Z
M 434.758 680.217
C 434.564 680.853 436.03 681.747 436.612 681.218
C 437.423 680.481 437.902 679.282 438.679 678.463
C 440.378 676.672 442.13 675.091 443.629 673.105
C 446.581 669.194 448.317 664.942 449.479 660.198
C 450.114 657.608 450.219 654.914 451.167 652.496
C 451.372 651.971 450.923 651.561 451.094 651.03
C 451.612 649.43 452.043 647.813 451.774 646.082
C 451.474 644.159 450.667 642.534 449.701 645.036
C 449.161 639.087 446.827 633.507 443.915 628.365
C 441.264 623.684 436.671 619.576 432.079 616.842
C 422.288 611.013 411.315 608.449 400.12 611.677
C 380.99 617.193 368.428 636.632 371.426 656.305
C 372.039 660.33 373.167 664.224 375.232 667.758
C 377.942 672.399 381.365 676.717 385.69 679.96
C 391.448 684.277 398.377 687.019 405.518 687.856
C 405.901 688.266 405.549 688.987 406.121 689.377
C 406.8 689.839 408.061 689.695 408.84 689.77
C 411.339 690.011 414.015 689.611 416.48 689.165
C 417.78 688.929 419.575 688.947 420.765 688.36
C 421.287 688.103 421.532 687.107 420.945 686.821
C 425.935 685.836 430.617 683.035 434.758 680.217 Z"
opacity="1" fill="rgb(209,210,211)" fill-rule="evenodd" />
<path d="
M 365.562 680.153
C 365.938 679.694 366.333 679.251 366.731 678.811
C 366.912 678.051 365.593 676.294 365.24 675.574
C 363.786 672.608 361.844 669.719 360.766 666.588
C 361.214 665.941 361.153 664.485 360.11 665.22
C 357.883 665.136 355.708 665.193 353.485 665.291
C 352.161 665.349 351.096 665.555 350.718 664.087
C 350.972 663.34 351.695 662.596 352.488 662.47
C 353.269 662.56 353.344 663.296 354.019 663.44
C 356.457 663.96 359.537 662.863 361.487 664.943
C 363.176 667.741 364.448 670.851 365.866 673.787
C 366.162 674.4 366.094 675.1 366.447 675.676
C 367.032 676.63 368.836 678.581 368.211 679.801
C 367.56 681.072 366.468 679.909 365.562 680.153 Z"
opacity="1" fill="rgb(205,211,207)" fill-rule="evenodd" />
<path d="
M 360.766 666.588
C 360.467 666.141 360.418 665.672 360.11 665.22
C 361.153 664.485 361.214 665.941 360.766 666.588 Z"
opacity="1" fill="rgb(196,184,194)" fill-rule="evenodd" />
<path d="
M 429.881 675.311
C 428.497 675.755 427.35 677.309 425.929 677.487
C 423.549 677.786 421.823 678.552 419.772 679.724
C 419.376 679.951 418.008 679.692 417.445 679.82
C 416.148 680.116 415.404 680.819 414.325 681.398
C 414.022 681.56 413.77 680.848 413.749 680.826
C 413.47 680.533 412.559 680.734 412.206 680.747
C 410.701 680.804 408.985 680.537 407.511 680.772
C 407.167 680.826 406.902 681.563 406.577 681.39
C 405.535 680.835 404.703 680.382 403.427 680.186
C 401.061 680.239 399.242 678.775 396.886 678.948
C 394.659 678.482 392.416 676.842 390.536 675.61
C 380.858 669.268 376.049 656.487 377.649 645.239
C 379.738 630.546 391.536 619.13 406.045 616.905
C 419.13 614.898 433.052 621.599 439.425 633.152
C 445.667 644.466 444.832 658.67 436.737 668.914
C 434.911 671.225 432.554 673.985 429.881 675.311 Z
M 391.984 649.116
C 391.788 655.027 394.253 660.999 399.098 664.558
C 406.291 669.84 417.593 668.575 423.635 662.11
C 426.904 658.611 428.556 653.782 428.736 649.05
C 429.197 636.889 416.331 627.967 405.014 631.426
C 397.124 633.838 392.25 641.108 391.984 649.116 Z"
opacity="1" fill="rgb(193,194,196)" fill-rule="evenodd" />
<path d="
M 377.374 689.004
C 378.965 688.667 380.219 689.615 381.497 690.416
C 383.809 691.865 386.068 693.3 388.494 694.557
C 389.508 695.083 390.772 695.354 391.525 696.259
C 391.813 698.184 391.288 700.51 391.077 702.454
C 390.976 703.38 390.438 704.567 391.006 705.373
C 393.218 706.044 396.066 707.185 398.43 706.889
C 399.228 706.322 399.412 705.28 399.782 704.429
C 400.598 702.553 401.381 700.546 402.288 698.725
C 406.313 697.962 411.074 698.841 415.211 698.631
C 416.348 698.573 418.548 698.204 419.418 699.108
C 421.589 701.362 421.684 705.768 424.257 707.555
C 424.807 707.79 425.363 707.425 425.932 707.295
C 427.48 706.942 430.948 706.278 431.843 704.85
C 431.947 701.941 429.784 699.122 429.974 696.097
C 430.886 694.901 432.471 694.837 433.731 694.156
C 436.338 692.747 438.82 691.11 441.102 689.217
C 442.27 688.248 443.826 686.905 445.456 687.084
C 447.829 687.344 449.774 690.544 451.619 691.856
C 452.082 691.89 453.907 691.082 454.198 691.382
C 454.91 692.118 453.072 694.244 452.45 694.509
C 450.414 694.181 448.322 691.574 446.813 690.269
C 446.236 689.77 445.667 688.948 444.928 688.792
C 440.767 691.574 436.816 694.471 432.333 696.747
C 431.784 697.87 432.347 699.005 432.601 700.185
C 433.059 702.306 433.482 704.453 433.855 706.587
C 430.281 707.957 426.34 709.594 422.505 709.942
C 419.807 707.652 420.58 702.841 418.127 700.249
C 413.352 700.638 408.696 700.252 403.926 700.27
C 402.019 702.487 400.796 707.189 400.044 709.988
C 399.554 710.425 397.679 709.458 397.014 709.3
C 394.139 708.618 391.394 707.461 388.47 706.949
C 388.294 706.099 388.619 705.311 388.716 704.462
C 388.996 702.032 389.464 699.537 390.052 697.165
C 389.824 696.346 387.237 695.342 386.433 694.9
C 383.756 693.429 379.12 691.554 377.374 689.004 Z"
opacity="0.996" fill="rgb(244,245,240)" fill-rule="evenodd" />
<path d="
M 396.886 678.948
C 399.242 678.775 401.061 680.239 403.427 680.186
C 404.703 680.382 405.535 680.835 406.577 681.39
C 406.902 681.563 407.167 680.826 407.511 680.772
C 408.985 680.537 410.701 680.804 412.206 680.747
C 412.559 680.734 413.47 680.533 413.749 680.826
C 413.77 680.848 414.022 681.56 414.325 681.398
C 415.404 680.819 416.148 680.116 417.445 679.82
C 418.008 679.692 419.376 679.951 419.772 679.724
C 421.823 678.552 423.549 677.786 425.929 677.487
C 427.35 677.309 428.497 675.755 429.881 675.311
C 428.483 676.628 426.639 677.365 424.967 678.249
C 418.878 681.467 411.304 683.003 404.499 681.395
C 401.974 680.798 399.046 680.517 396.886 678.948 Z"
opacity="0.996" fill="rgb(187,191,186)" fill-rule="evenodd" />
<path d="
M 405.518 687.856
C 410.827 688.512 415.746 688.096 420.945 686.821
C 421.532 687.107 421.287 688.103 420.765 688.36
C 419.575 688.947 417.78 688.929 416.48 689.165
C 414.015 689.611 411.339 690.011 408.84 689.77
C 408.061 689.695 406.8 689.839 406.121 689.377
C 405.549 688.987 405.901 688.266 405.518 687.856 Z"
opacity="1" fill="rgb(231,224,226)" fill-rule="evenodd" />
<path d="
M 449.701 645.036
C 450.667 642.534 451.474 644.159 451.774 646.082
C 452.043 647.813 451.612 649.43 451.094 651.03
C 450.923 651.561 451.372 651.971 451.167 652.496
C 450.219 654.914 450.114 657.608 449.479 660.198
C 448.317 664.942 446.581 669.194 443.629 673.105
C 442.13 675.091 440.378 676.672 438.679 678.463
C 437.902 679.282 437.423 680.481 436.612 681.218
C 436.03 681.747 434.564 680.853 434.758 680.217
C 439.941 675.446 444.868 670.592 447.443 663.839
C 447.693 663.217 447.93 662.593 448.149 661.96
C 449.755 656.24 450.186 650.959 449.701 645.036 Z"
opacity="0.996" fill="rgb(224,226,228)" fill-rule="evenodd" />
<path d="
M 460.391 664.832
C 459.954 668.321 457.879 671.754 456.234 674.79
C 455.66 675.848 454.58 676.864 454.306 678.03
C 455.401 680.968 458.398 683.616 460.337 686.027
C 460.362 686.704 459.844 686.98 459.358 687.39
C 458.794 687.839 457.962 688.158 457.384 687.457
C 456.645 686.562 456.838 685.417 456.379 684.405
C 455.722 682.958 453.788 681.404 453.558 679.874
C 453.5 679.489 453.919 678.907 453.762 678.582
C 453.535 678.112 453.188 677.916 453.213 677.316
C 453.318 674.725 456.292 672.199 457.179 669.799
C 457.908 667.828 458.052 665.278 459.293 663.557
C 459.763 663.843 460.164 664.327 460.391 664.832 Z"
opacity="0.996" fill="rgb(233,227,224)" fill-rule="evenodd" />
<path d="
M 457.007 591.125
C 457.038 590.932 457.07 590.74 457.102 590.548
C 459.454 589.069 463.805 589.895 466.505 589.923
C 474.163 590.004 481.856 589.729 489.505 590.045
C 515.334 591.109 541.266 589.056 567.108 590.219
C 567.725 590.889 567.316 593.374 567.313 594.297
C 567.3 597.747 567.009 601.351 567.319 604.786
C 551.834 605.597 536.179 605.358 520.678 605.27
C 520.48 629.333 520.728 653.434 520.769 677.505
C 520.787 687.943 521.246 698.492 520.832 708.918
C 517.134 709.446 513.238 709.183 509.509 709.165
C 507.345 709.154 504.867 709.496 502.745 709.131
C 503.12 698.954 502.836 688.69 502.844 678.502
C 502.865 654.167 502.588 629.796 502.888 605.468
C 502.031 604.928 500.509 605.237 499.51 605.247
C 496.51 605.279 493.508 605.25 490.508 605.253
C 483.341 605.258 476.175 605.243 469.009 605.208
C 465.114 605.189 461.092 605.438 457.224 604.946
C 456.589 600.572 456.561 595.516 457.007 591.125 Z"
opacity="1" fill="rgb(117,231,139)" fill-rule="evenodd" />
<path d="
M 461.618 637.524
C 462.465 641.665 462.579 645.913 463.286 650.063
C 463.168 650.279 463.106 650.493 463.02 650.723
C 461.672 650.083 461.746 648.542 461.286 647.34
C 460.483 645.243 460.511 643.216 460.247 640.953
C 460.166 640.254 459.778 639.576 459.808 638.871
C 459.846 637.964 460.788 637.486 461.618 637.524 Z"
opacity="0.996" fill="rgb(234,232,219)" fill-rule="evenodd" />
<path d="
M 460.83 425.642
C 463.129 424.719 465.492 423.944 467.981 423.774
C 468.541 423.913 469.003 424.759 468.598 425.235
C 468.188 425.716 467.295 425.226 466.79 425.304
C 466.098 425.412 465.724 425.992 465.114 426.208
C 464.775 426.328 464.605 425.878 464.31 425.816
C 462.978 425.539 461.839 427.61 460.83 425.642 Z"
opacity="1" fill="rgb(177,172,173)" fill-rule="evenodd" />
<path d="
M 463.286 650.063
C 464.617 652.508 469.705 651.442 471.423 653.642
C 471.82 657.487 470.713 661.558 470.268 665.347
C 468.619 665.577 466.648 665.169 464.998 664.966
C 466.094 664.408 467.432 664.017 468.589 663.529
C 469.136 662.852 469.124 661.972 469.21 661.135
C 469.431 658.983 469.606 656.781 469.64 654.628
C 468.14 653.414 462.655 653.467 463.02 650.723
C 463.106 650.493 463.168 650.279 463.286 650.063 Z"
opacity="1" fill="rgb(218,208,210)" fill-rule="evenodd" />
<path d="
M 463.933 465.41
C 464.899 465.19 465.91 465.072 466.854 464.78
C 467.599 464.268 467.93 462.306 467.954 461.467
C 467.187 460.709 466.053 460.437 465.37 459.592
C 465.265 459.08 465.313 458.641 465.426 458.129
C 465.537 457.626 465.692 457.096 465.947 456.647
C 467.451 453.995 470.489 456.459 472.492 454.673
C 473.13 453.368 471.831 452.472 471.893 451.224
C 472.707 450.424 473.833 449.121 474.94 448.762
C 475.839 448.704 476.405 448.912 477.195 449.299
C 477.753 450.028 477.985 450.874 478.342 451.706
C 479.039 451.799 480.217 451.909 480.824 451.493
C 481.31 450.117 480.978 448.514 481.995 447.338
C 483.639 446.839 485.892 446.909 487.157 448.169
C 487.559 449.591 486.757 450.725 486.646 452.109
C 487.651 452.625 489.014 453.845 490.201 453.723
C 490.963 452.967 491.851 452.09 492.981 452.033
C 496.771 451.843 498.52 456.056 495.707 458.454
C 495.747 459.495 497.082 461.038 497.709 461.94
C 499.348 461.647 500.533 459.977 502.433 460.444
C 503.813 461.622 505.398 462.572 506.622 463.909
C 507.217 463.881 507.801 462.953 508.392 462.719
C 510.275 461.97 511.989 461.68 513.522 460.196
C 513.857 458.961 512.871 457.636 513.193 456.365
C 514.99 454.292 517.362 453.469 520.048 453.665
C 520.825 454.452 521.587 456.657 522.434 457.05
C 524.096 456.827 526.216 457.38 527.778 456.862
C 528.091 455.684 528.506 454.159 529.575 453.442
C 531.225 452.337 535.391 453.437 536.797 454.682
C 537.037 456.088 536.744 457.501 536.924 458.907
C 537.88 459.779 539.271 460.259 540.406 460.87
C 540.756 461.059 541.289 461.446 541.668 461.226
C 542.13 460.776 542.641 460.372 543.152 459.978
C 544.762 459.613 547.42 460.48 548.844 461.221
C 550.144 463.839 549.494 466.273 546.718 467.121
C 547.987 468.802 548.759 470.807 550.043 472.495
C 551.268 472.306 552.44 471.755 553.685 471.538
C 555.012 473.027 556.95 477.748 554.466 479.237
C 553.302 479.498 552.193 479.358 551.077 479.872
C 550.118 481.837 550.372 484.949 550.986 486.992
C 551.75 487.201 553.346 487.049 553.832 487.586
C 554.246 489.662 554.004 493.219 551.901 494.398
C 550.343 494.536 548.711 494.363 547.394 493.456
C 545.717 493.394 542.615 497.053 542.134 498.484
C 546.317 501.059 541.596 504.995 538.491 505.522
C 537.015 504.968 536.005 503.08 534.568 502.294
C 532.659 502.327 530.653 503.268 528.859 503.89
C 528.133 505.086 528.385 506.963 527.967 508.334
C 526.732 509.215 523.109 508.619 521.759 508.224
C 520.665 506.989 521.165 504.656 520.825 503.15
C 519.188 502.027 516.755 500.855 514.806 500.521
C 513.412 501.186 512.827 502.525 512.19 503.852
C 508.794 503.7 505.864 501.971 506.525 498.079
C 507.022 497.56 507.852 496.967 508.135 496.313
C 508.128 494.896 506.823 493.222 505.987 492.169
C 504.688 491.453 502.407 491.878 500.915 491.821
C 499.452 490.286 499.386 487.304 499.466 485.284
C 500.44 484.415 501.684 484.549 502.725 483.89
C 502.731 481.767 502.371 479.674 502.316 477.557
C 501.415 477.609 499.399 478.234 498.644 477.872
C 498.167 476.656 497.337 475.295 496.484 474.313
C 495.123 475.751 492.925 477.081 492.449 479.121
C 493.092 479.619 493.611 480.108 494.092 480.763
C 494.22 484.048 489.675 485.209 487.55 483.396
C 487.19 482.692 487.243 481.928 487.199 481.152
C 485.836 481.445 483.484 481.117 482.332 481.789
C 482.411 482.831 482.513 483.84 482.286 484.87
C 480.482 487.356 476.695 485.804 475.102 483.953
C 475.47 483.079 476.417 481.818 476.234 480.834
C 474.986 480.462 473.755 479.808 472.449 479.683
C 471.921 480.347 471.29 481.108 470.504 481.462
C 467.579 481.58 466.318 479.535 466.045 476.813
C 466.746 475.953 467.727 475.417 468.653 474.826
C 468.657 473.661 467.98 472.387 467.571 471.312
C 466.871 470.861 465.317 471.054 464.461 470.999
C 463.873 469.165 463.689 467.319 463.933 465.41 Z
M 473.44 465.59
C 473.22 466.685 473.256 467.859 473.439 468.955
C 475.087 478.791 489.394 477.996 491.141 468.677
C 491.377 467.419 491.434 466.069 491.158 464.812
C 489.063 455.243 475.26 456.534 473.44 465.59 Z
M 498.733 467.399
C 498.404 468.487 498.464 469.492 498.654 470.599
C 499.456 471.129 501.524 471.995 502.487 471.776
C 503.752 470.85 504.767 468.608 504.814 467.067
C 503.456 464.226 500.232 465.677 498.733 467.399 Z
M 513.451 478.095
C 512.975 482.441 514.754 487.492 518.208 490.269
C 524.413 495.259 534.499 494.066 538.428 486.866
C 539.272 485.32 539.891 483.585 540.089 481.828
C 540.793 475.604 535.948 469.102 529.911 467.621
C 522.74 465.861 514.285 470.473 513.451 478.095 Z"
opacity="1" fill="rgb(189,191,191)" fill-rule="evenodd" />
<path d="
M 485.484 423.923
C 489.771 423.52 494.187 423.778 498.492 423.809
C 505.496 423.86 512.497 423.86 519.501 423.845
C 523.833 423.836 528.165 423.877 532.497 423.84
C 534.994 423.818 537.841 423.466 540.29 423.984
C 540.63 424.309 541.237 424.653 541.174 425.177
C 540.192 425.683 538.37 425.289 537.292 425.252
C 534.787 425.164 532.268 425.361 529.761 425.35
C 527.022 425.337 524.382 424.912 521.665 424.776
C 519.276 424.656 516.876 424.964 514.483 424.919
C 509.149 424.819 503.84 424.474 498.497 424.479
C 495.323 424.483 492.15 424.466 488.976 424.488
C 487.666 424.497 486.427 424.948 485.484 423.923 Z"
opacity="0.996" fill="rgb(190,189,190)" fill-rule="evenodd" />
<path d="
M 548.531 399.198
C 554.723 399.71 561.151 399.284 567.365 399.248
C 571.77 399.223 575.946 399.14 580.109 400.779
C 579.97 401.142 579.749 401.508 579.347 401.64
C 578.91 401.783 578.284 401.319 577.836 401.273
C 576.088 401.092 574.296 400.903 572.535 400.921
C 566.562 400.981 560.822 401.002 554.929 400.103
C 553.329 399.859 551.685 400.769 550.088 400.265
C 549.449 400.062 549.103 399.5 548.531 399.198 Z"
opacity="1" fill="rgb(194,187,189)" fill-rule="evenodd" />
<path d="
M 551.482 423.708
C 559.06 422.915 567.651 425.487 570.965 433.013
C 569.251 431.851 568.176 430.058 566.672 428.675
C 564.552 426.725 561.568 425.567 558.756 425.14
C 556.277 424.764 552.871 425.663 550.548 424.769
C 549.237 424.265 550.967 423.674 551.482 423.708 Z"
opacity="1" fill="rgb(197,189,193)" fill-rule="evenodd" />
<path d="
M 580.813 420.053
C 581.858 418.682 581.519 421.537 581.292 422.068
C 581.142 421.393 580.943 420.734 580.813 420.053 Z"
opacity="0.996" fill="rgb(162,172,169)" fill-rule="evenodd" />
<path d="
M 581.492 692.126
C 581.942 689.042 581.578 685.617 581.586 682.494
C 581.601 676.328 581.606 670.163 581.609 663.997
C 581.617 647.997 581.604 631.996 581.589 615.996
C 581.58 607.459 581.159 598.776 581.684 590.257
C 586.008 589.978 590.395 590.048 594.73 590.084
C 595.918 590.093 598.419 589.758 599.387 590.474
C 599.208 598.798 599.545 607.17 599.55 615.5
C 599.559 635.336 599.546 655.172 599.643 675.008
C 599.682 683.006 599.671 691.005 599.722 699.003
C 599.737 701.404 599.736 703.805 599.776 706.205
C 599.789 706.998 600.069 708.33 599.765 709.07
C 593.932 709.919 587.577 709.165 581.687 709.234
C 581.82 703.549 581.298 697.833 581.492 692.126 Z"
opacity="1" fill="rgb(117,230,138)" fill-rule="evenodd" />
<path d="
M 583.094 402.353
C 585.197 403.764 588.208 405.99 589.051 408.469
C 587.342 407.843 586.497 405.922 585.221 404.75
C 584.671 404.246 583.632 404.172 583.193 403.587
C 582.921 403.225 583.271 402.761 583.094 402.353 Z"
opacity="1" fill="rgb(194,187,189)" fill-rule="evenodd" />
<path d="
M 615.833 590.39
C 619.989 589.803 624.309 590.177 628.502 590.228
C 635.334 590.311 642.168 590.307 649 590.295
C 658.667 590.279 668.334 590.232 678.001 590.216
C 683.212 590.207 688.596 589.868 693.786 590.362
C 693.822 595.067 694.394 600.111 693.853 604.797
C 686.408 605.74 678.5 605.032 671.004 605.049
C 657.839 605.078 644.672 605.083 631.507 605.156
C 626.276 605.186 620.977 604.929 615.755 605.145
C 615.603 600.256 615.511 595.277 615.833 590.39 Z"
opacity="1" fill="rgb(119,229,140)" fill-rule="evenodd" />
<path d="
M 615.782 694.795
C 617.756 693.943 619.891 694.235 622 694.244
C 625.833 694.262 629.665 694.261 633.498 694.252
C 647.333 694.218 661.168 694.126 675.003 694.096
C 679.67 694.085 684.338 694.044 689.004 694.11
C 690.577 694.133 693.013 693.672 694.431 694.354
C 694.52 699.076 695.047 704.507 694.338 709.167
C 688.307 709.717 682.055 709.352 676.003 709.316
C 665.67 709.256 655.34 709.226 645.007 709.252
C 638.341 709.268 631.673 709.291 625.006 709.26
C 622.078 709.247 618.55 709.808 615.694 709.251
C 615.813 704.484 615.176 699.532 615.782 694.795 Z"
opacity="1" fill="rgb(120,229,144)" fill-rule="evenodd" />
<path d="
M 616.409 642.774
C 640.818 642.106 665.317 643.474 689.713 642.793
C 689.359 644.121 689.74 646.089 689.745 647.504
C 689.757 650.555 689.529 653.695 689.749 656.736
C 686.901 657.493 683.429 657.061 680.507 657.054
C 675.174 657.042 669.84 657.08 664.507 657.107
C 654.341 657.159 644.173 657.064 634.007 657.156
C 628.248 657.208 622.049 657.869 616.333 657.135
C 616.245 652.345 616.44 647.558 616.409 642.774 Z"
opacity="1" fill="rgb(118,232,137)" fill-rule="evenodd" />
<path d="
M 707.975 650.626
C 708.842 644.985 708.274 639.219 709.464 633.551
C 712.143 620.792 718.154 609.114 728.496 600.956
C 734.214 596.446 741.646 593.431 748.598 591.44
C 758.901 588.49 769.365 587.837 780.018 588.594
C 790.935 589.37 801.498 591.217 811.147 596.709
C 820.601 602.09 830.116 610.706 833.321 621.443
C 832.361 622.35 829.959 622.886 828.707 623.444
C 826.053 624.628 823.418 625.853 820.734 626.969
C 819.75 627.378 818.563 628.262 817.534 628.426
C 817.072 625.746 814.885 623.121 813.345 620.966
C 807.589 612.915 799.477 608.306 790.054 605.833
C 783.134 604.017 776.052 603.646 768.934 604.004
C 755.415 604.685 741.455 608.535 733.457 620.384
C 730.476 624.8 728.543 629.851 727.446 635.048
C 725.148 645.925 725.554 657.318 728.087 668.113
C 729.678 674.894 732.782 681.974 738.19 686.589
C 745.2 692.571 754.563 695.079 763.51 695.961
C 784.615 698.042 810.89 692.676 818.664 670.104
C 822.113 671.374 825.29 673.172 828.595 674.776
C 830.167 675.539 832.756 676.57 833.87 677.943
C 832.298 681.941 830.255 685.856 827.717 689.323
C 813.666 708.51 788.047 712.366 765.919 711.418
C 751.631 710.806 736.24 706.866 725.216 697.294
C 712.275 686.057 707.332 667.33 707.975 650.626 Z"
opacity="1" fill="rgb(121,228,142)" fill-rule="evenodd" />
<path d="
M 853.492 590.325
C 859.328 589.47 865.386 590.224 871.249 590.301
C 870.992 591.01 871.259 592.217 871.264 593.005
C 871.278 595.171 871.263 597.337 871.266 599.503
C 871.274 606.837 871.266 614.17 871.258 621.504
C 871.236 641.67 871.392 661.835 871.368 682
C 871.361 687.36 871.278 692.728 871.42 698.086
C 871.512 701.557 872.008 705.306 871.501 708.752
C 870.477 709.423 868.208 709.105 866.996 709.144
C 864.002 709.24 860.998 709.183 858.003 709.169
C 856.528 709.162 854.91 709.386 853.467 709.035
C 852.582 704.236 853.189 698.867 853.189 693.998
C 853.189 684.498 853.203 674.999 853.224 665.5
C 853.26 649.166 853.2 632.832 853.232 616.498
C 853.249 607.79 852.964 599.021 853.492 590.325 Z"
opacity="1" fill="rgb(120,227,139)" fill-rule="evenodd" />
<path d="
M 887.299 642.769
C 893.79 642.108 900.466 642.668 907 642.65
C 924.243 642.604 941.653 643.244 958.861 642.414
C 959.57 625.083 959.225 607.553 959.146 590.206
C 963.014 590.009 966.864 589.907 970.739 589.92
C 972.832 589.927 975.081 589.742 977.129 590.218
C 976.599 601.09 977.032 612.111 977.056 623.003
C 977.097 641.671 977.05 660.34 977.091 679.008
C 977.107 686.507 977.188 694.005 977.188 701.504
C 977.188 703.335 977.184 705.167 977.16 706.998
C 977.154 707.478 977.348 708.607 976.997 708.943
C 971.289 710.177 965.002 708.536 959.225 709.053
C 958.874 704.748 959.137 700.351 959.125 696.034
C 959.101 687.681 959.063 679.35 959.092 670.995
C 959.107 666.583 959.749 661.691 959.153 657.33
C 952.165 656.43 944.556 657.201 937.508 657.198
C 920.87 657.19 904.178 657.669 887.548 657.309
C 886.876 656.566 887.21 654.478 887.215 653.499
C 887.233 649.92 887.237 646.345 887.299 642.769 Z"
opacity="1" fill="rgb(117,229,139)" fill-rule="evenodd" />

</svg>
